<?xml version="1.0" encoding="utf-8"?>
<!-- Generator: Adobe Illustrator 26.0.2, SVG Export Plug-In . SVG Version: 6.00 Build 0)  -->
<svg version="1.1" id="Layer_1" xmlns="http://www.w3.org/2000/svg" xmlns:xlink="http://www.w3.org/1999/xlink" x="0px" y="0px"
	 viewBox="0 0 336 64" style="enable-background:new 0 0 336 64;" xml:space="preserve">
<style type="text/css">
	.st0{fill:#FFFFFF;}
</style>
<g>
	<g>
		<g>
			<path class="st0" d="M28.4,19.3c-0.2-1.6-0.9-2.9-2.2-3.8c-1.3-0.9-3-1.3-5-1.3c-1.4,0-2.7,0.2-3.7,0.7c-1,0.4-1.9,1.1-2.4,1.8
				c-0.6,0.8-0.9,1.7-0.9,2.7c0,0.8,0.2,1.5,0.6,2.1c0.4,0.6,0.9,1.1,1.6,1.5s1.3,0.7,2.1,1s1.4,0.5,2.1,0.7l3.4,0.9
				c1.1,0.3,2.3,0.6,3.4,1.1c1.2,0.5,2.3,1.1,3.3,1.8c1,0.8,1.8,1.7,2.4,2.8c0.6,1.1,0.9,2.5,0.9,4c0,2-0.5,3.7-1.5,5.3
				c-1,1.5-2.5,2.7-4.4,3.6c-1.9,0.9-4.3,1.3-7,1.3c-2.6,0-4.9-0.4-6.8-1.2c-1.9-0.8-3.4-2-4.5-3.5S8.1,37.5,8,35.4h5.3
				c0.1,1.3,0.5,2.3,1.2,3.1c0.7,0.8,1.6,1.5,2.8,1.9c1.1,0.4,2.4,0.6,3.7,0.6c1.5,0,2.8-0.2,4-0.7c1.2-0.5,2.1-1.1,2.8-2
				c0.7-0.8,1-1.8,1-3c0-1-0.3-1.9-0.9-2.5c-0.6-0.7-1.4-1.2-2.4-1.6c-1-0.4-2.1-0.8-3.4-1.1L18,28.9c-2.8-0.8-5-1.9-6.6-3.4
				c-1.6-1.5-2.4-3.4-2.4-5.9c0-2,0.5-3.8,1.6-5.3s2.6-2.7,4.4-3.5c1.9-0.8,4-1.3,6.3-1.3c2.4,0,4.5,0.4,6.3,1.2
				c1.8,0.8,3.2,2,4.3,3.4c1,1.4,1.6,3.1,1.6,5H28.4z"/>
			<path class="st0" d="M47.5,45.6c-2.6,0-4.8-0.6-6.7-1.7c-1.9-1.1-3.3-2.7-4.3-4.7c-1-2-1.5-4.4-1.5-7.1c0-2.7,0.5-5,1.5-7.1
				c1-2,2.4-3.6,4.2-4.8c1.8-1.1,3.9-1.7,6.4-1.7c1.5,0,2.9,0.2,4.3,0.7c1.4,0.5,2.6,1.3,3.7,2.3c1.1,1,2,2.4,2.6,4.1
				c0.6,1.7,1,3.7,1,6.1v1.8H38v-3.8h15.8c0-1.3-0.3-2.5-0.8-3.6c-0.5-1-1.3-1.9-2.3-2.5c-1-0.6-2.1-0.9-3.5-0.9
				c-1.4,0-2.7,0.3-3.7,1c-1.1,0.7-1.9,1.6-2.5,2.7c-0.6,1.1-0.9,2.3-0.9,3.6v3c0,1.8,0.3,3.2,0.9,4.5c0.6,1.2,1.5,2.2,2.6,2.8
				s2.4,1,3.9,1c1,0,1.8-0.1,2.6-0.4c0.8-0.3,1.5-0.7,2.1-1.3s1-1.2,1.3-2.1l4.8,0.9c-0.4,1.4-1.1,2.7-2.1,3.7
				c-1,1.1-2.2,1.9-3.7,2.5C51.2,45.3,49.5,45.6,47.5,45.6z"/>
			<path class="st0" d="M66,29.5v15.5h-5.1V18.9h4.9v4.3h0.3c0.6-1.4,1.5-2.5,2.8-3.3s2.9-1.3,4.9-1.3c1.8,0,3.3,0.4,4.7,1.1
				c1.3,0.7,2.4,1.8,3.1,3.3s1.1,3.3,1.1,5.4v16.7h-5.1V29c0-1.9-0.5-3.4-1.5-4.5c-1-1.1-2.3-1.6-4.1-1.6c-1.2,0-2.2,0.3-3.1,0.8
				S67.3,25,66.7,26C66.2,26.9,66,28.1,66,29.5z"/>
			<path class="st0" d="M98.1,18.9V23H83.8v-4.1H98.1z M87.7,12.6h5.1v24.8c0,1,0.1,1.7,0.4,2.2c0.3,0.5,0.7,0.8,1.2,1
				c0.5,0.2,1,0.3,1.5,0.3c0.4,0,0.8,0,1.1-0.1c0.3-0.1,0.5-0.1,0.7-0.1l0.9,4.2c-0.3,0.1-0.7,0.2-1.3,0.3s-1.2,0.2-2,0.2
				c-1.3,0-2.6-0.2-3.8-0.7c-1.2-0.5-2.1-1.3-2.8-2.3c-0.7-1-1.1-2.4-1.1-3.9V12.6z"/>
			<path class="st0" d="M102.7,14.8c-0.9,0-1.6-0.3-2.3-0.9c-0.6-0.6-0.9-1.3-0.9-2.1c0-0.8,0.3-1.6,0.9-2.2
				c0.6-0.6,1.4-0.9,2.3-0.9s1.6,0.3,2.3,0.9c0.6,0.6,0.9,1.3,0.9,2.1c0,0.8-0.3,1.6-0.9,2.2C104.4,14.5,103.6,14.8,102.7,14.8z
				 M100.2,45.1V18.9h5.1v26.2H100.2z"/>
			<path class="st0" d="M113.6,29.5v15.5h-5.1V18.9h4.9v4.3h0.3c0.6-1.4,1.5-2.5,2.8-3.3s2.9-1.3,4.9-1.3c1.8,0,3.3,0.4,4.7,1.1
				c1.3,0.7,2.4,1.8,3.1,3.3s1.1,3.3,1.1,5.4v16.7h-5.1V29c0-1.9-0.5-3.4-1.5-4.5c-1-1.1-2.3-1.6-4.1-1.6c-1.2,0-2.2,0.3-3.1,0.8
				s-1.6,1.3-2.2,2.2C113.9,26.9,113.6,28.1,113.6,29.5z"/>
			<path class="st0" d="M144.9,45.6c-2.6,0-4.8-0.6-6.7-1.7c-1.9-1.1-3.3-2.7-4.3-4.7c-1-2-1.5-4.4-1.5-7.1c0-2.7,0.5-5,1.5-7.1
				c1-2,2.4-3.6,4.2-4.8c1.8-1.1,3.9-1.7,6.4-1.7c1.5,0,2.9,0.2,4.3,0.7c1.4,0.5,2.6,1.3,3.7,2.3c1.1,1,2,2.4,2.6,4.1
				c0.6,1.7,1,3.7,1,6.1v1.8h-20.8v-3.8h15.8c0-1.3-0.3-2.5-0.8-3.6c-0.5-1-1.3-1.9-2.3-2.5c-1-0.6-2.1-0.9-3.5-0.9
				c-1.4,0-2.7,0.3-3.7,1c-1.1,0.7-1.9,1.6-2.5,2.7c-0.6,1.1-0.9,2.3-0.9,3.6v3c0,1.8,0.3,3.2,0.9,4.5c0.6,1.2,1.5,2.2,2.6,2.8
				s2.4,1,3.9,1c1,0,1.8-0.1,2.6-0.4c0.8-0.3,1.5-0.7,2.1-1.3s1-1.2,1.3-2.1l4.8,0.9c-0.4,1.4-1.1,2.7-2.1,3.7
				c-1,1.1-2.2,1.9-3.7,2.5C148.5,45.3,146.8,45.6,144.9,45.6z"/>
			<path class="st0" d="M163.3,10.1v34.9h-5.1V10.1H163.3z"/>
			<path class="st0" d="M176.4,45.1V10.1h12.2c2.4,0,4.4,0.4,6,1.3s2.8,2,3.5,3.4c0.8,1.4,1.2,3,1.2,4.7c0,1.5-0.3,2.7-0.8,3.7
				c-0.5,1-1.2,1.8-2.1,2.3s-1.8,1-2.8,1.3v0.3c1.1,0.1,2.1,0.4,3.2,1.1s2,1.7,2.7,2.9c0.7,1.3,1.1,2.8,1.1,4.7
				c0,1.8-0.4,3.3-1.2,4.7c-0.8,1.4-2.1,2.5-3.8,3.3c-1.7,0.8-3.9,1.2-6.7,1.2H176.4z M180.7,25.5h7.8c1.3,0,2.4-0.2,3.5-0.8
				c1-0.5,1.8-1.2,2.5-2.1s0.9-2,0.9-3.2c0-1.5-0.5-2.8-1.6-3.9s-2.8-1.6-5.1-1.6h-8V25.5z M180.7,41.3h8.4c2.8,0,4.7-0.5,5.9-1.6
				s1.7-2.4,1.7-3.9c0-1.2-0.3-2.3-0.9-3.3c-0.6-1-1.5-1.8-2.6-2.4c-1.1-0.6-2.4-0.9-4-0.9h-8.6V41.3z"/>
			<path class="st0" d="M203.5,45.1V18.9h3.9v4h0.3c0.5-1.3,1.3-2.3,2.6-3.2c1.2-0.8,2.7-1.2,4.2-1.2c0.3,0,0.7,0,1.1,0s0.8,0,1,0.1
				v4.1c-0.1,0-0.4-0.1-0.9-0.2c-0.5-0.1-1-0.1-1.5-0.1c-1.3,0-2.4,0.3-3.4,0.8c-1,0.5-1.8,1.3-2.4,2.2c-0.6,0.9-0.9,2-0.9,3.2v16.6
				H203.5z"/>
			<path class="st0" d="M228.4,45.6c-2.4,0-4.4-0.6-6.2-1.7c-1.8-1.1-3.2-2.7-4.2-4.7c-1-2-1.5-4.4-1.5-7.1c0-2.7,0.5-5.1,1.5-7.1
				c1-2,2.4-3.6,4.2-4.7c1.8-1.1,3.8-1.7,6.2-1.7s4.4,0.6,6.2,1.7c1.8,1.1,3.2,2.7,4.2,4.7c1,2,1.5,4.4,1.5,7.1
				c0,2.7-0.5,5.1-1.5,7.1c-1,2-2.4,3.6-4.2,4.7C232.9,45,230.8,45.6,228.4,45.6z M228.4,42c1.8,0,3.3-0.5,4.4-1.4s2-2.1,2.6-3.6
				s0.8-3.1,0.8-4.9s-0.3-3.4-0.8-4.9c-0.6-1.5-1.4-2.7-2.6-3.7s-2.6-1.4-4.4-1.4c-1.8,0-3.3,0.5-4.4,1.4c-1.2,0.9-2,2.2-2.6,3.7
				c-0.6,1.5-0.8,3.1-0.8,4.9s0.3,3.4,0.8,4.9s1.4,2.7,2.6,3.6C225.2,41.5,226.6,42,228.4,42z"/>
			<path class="st0" d="M248.8,45.1l-8-26.2h4.2l5.7,20h0.3l5.6-20h4.3l5.5,20h0.3l5.7-20h4.2l-8,26.2h-4l-5.7-20.1h-0.4l-5.7,20.1
				H248.8z"/>
			<path class="st0" d="M296.8,24.7l-3.6,1c-0.2-0.6-0.6-1.2-1-1.8s-1-1-1.8-1.4s-1.7-0.6-2.9-0.6c-1.6,0-2.9,0.4-4,1.1
				c-1.1,0.7-1.6,1.7-1.6,2.8c0,1,0.4,1.8,1.1,2.4c0.7,0.6,1.9,1.1,3.4,1.4l3.9,1c2.3,0.6,4.1,1.4,5.2,2.6c1.1,1.2,1.7,2.7,1.7,4.5
				c0,1.5-0.4,2.8-1.3,4s-2.1,2.1-3.6,2.8c-1.5,0.7-3.3,1-5.4,1c-2.7,0-4.9-0.6-6.6-1.7c-1.8-1.2-2.9-2.9-3.3-5.1l3.8-1
				c0.4,1.4,1.1,2.5,2.1,3.2c1,0.7,2.3,1.1,4,1.1c1.9,0,3.4-0.4,4.5-1.2s1.7-1.8,1.7-2.9c0-0.9-0.3-1.7-1-2.3
				c-0.6-0.6-1.6-1.1-2.9-1.4l-4.4-1c-2.4-0.6-4.2-1.5-5.3-2.7c-1.1-1.2-1.7-2.7-1.7-4.5c0-1.5,0.4-2.8,1.3-3.9c0.8-1.1,2-2,3.4-2.7
				c1.4-0.6,3.1-1,4.9-1c2.6,0,4.6,0.6,6.1,1.7C295.1,21.4,296.1,22.9,296.8,24.7z"/>
			<path class="st0" d="M310.7,45.6c-2.5,0-4.7-0.6-6.5-1.7c-1.8-1.1-3.2-2.7-4.2-4.7c-1-2-1.5-4.4-1.5-7s0.5-5,1.5-7.1
				c1-2.1,2.4-3.7,4.1-4.8s3.8-1.7,6.2-1.7c1.4,0,2.7,0.2,4,0.7c1.3,0.5,2.5,1.2,3.6,2.2c1.1,1,2,2.4,2.6,4c0.6,1.7,1,3.7,1,6.2v1.7
				h-20.2v-3.5h16.1c0-1.5-0.3-2.8-0.9-4s-1.4-2.1-2.5-2.7c-1.1-0.7-2.3-1-3.8-1c-1.6,0-3,0.4-4.2,1.2c-1.2,0.8-2.1,1.8-2.7,3.1
				c-0.6,1.3-0.9,2.6-0.9,4.1v2.3c0,2,0.3,3.7,1,5c0.7,1.4,1.6,2.4,2.9,3.1s2.7,1.1,4.3,1.1c1.1,0,2-0.2,2.9-0.5
				c0.9-0.3,1.6-0.8,2.2-1.4c0.6-0.6,1.1-1.4,1.4-2.3l3.9,1.1c-0.4,1.3-1.1,2.5-2.1,3.5s-2.2,1.8-3.6,2.3
				C314.1,45.3,312.5,45.6,310.7,45.6z"/>
			<path class="st0" d="M324.1,45.1V18.9h3.9v4h0.3c0.5-1.3,1.3-2.3,2.6-3.2c1.2-0.8,2.7-1.2,4.2-1.2c0.3,0,0.7,0,1.1,0s0.8,0,1,0.1
				v4.1c-0.1,0-0.4-0.1-0.9-0.2c-0.5-0.1-1-0.1-1.5-0.1c-1.3,0-2.4,0.3-3.4,0.8c-1,0.5-1.8,1.3-2.4,2.2c-0.6,0.9-0.9,2-0.9,3.2v16.6
				H324.1z"/>
		</g>
	</g>
</g>
</svg>
