<?xml version="1.0" encoding="utf-8"?>
<!-- Generator: Adobe Illustrator 26.0.2, SVG Export Plug-In . SVG Version: 6.00 Build 0)  -->
<svg version="1.1" id="Layer_1" xmlns="http://www.w3.org/2000/svg" xmlns:xlink="http://www.w3.org/1999/xlink" x="0px" y="0px"
	 viewBox="0 0 172 42" style="enable-background:new 0 0 172 42;" xml:space="preserve">
<g>
	<g>
		<g>
			<path d="M24.8,12.4c-0.2-1.7-1-3.1-2.4-4.1c-1.4-1-3.2-1.4-5.4-1.4c-1.6,0-2.9,0.2-4,0.7s-2,1.2-2.6,2c-0.6,0.8-0.9,1.8-0.9,2.9
				c0,0.9,0.2,1.7,0.6,2.3c0.4,0.7,1,1.2,1.7,1.6c0.7,0.4,1.4,0.8,2.2,1.1c0.8,0.3,1.6,0.5,2.3,0.7l3.7,1c1.2,0.3,2.4,0.7,3.7,1.2
				c1.3,0.5,2.4,1.2,3.5,2c1.1,0.8,2,1.8,2.6,3.1c0.7,1.2,1,2.7,1,4.4c0,2.1-0.6,4-1.7,5.7c-1.1,1.7-2.7,3-4.8,3.9
				c-2.1,1-4.6,1.4-7.6,1.4c-2.8,0-5.3-0.4-7.3-1.3s-3.7-2.2-4.9-3.8c-1.2-1.7-1.8-3.6-1.9-5.9h5.7c0.1,1.4,0.6,2.5,1.3,3.4
				c0.8,0.9,1.8,1.6,3,2c1.2,0.4,2.6,0.7,4,0.7c1.6,0,3-0.3,4.3-0.8s2.3-1.2,3-2.1s1.1-2,1.1-3.2c0-1.1-0.3-2-1-2.8
				s-1.5-1.3-2.6-1.8S19.3,24.4,18,24l-4.5-1.2c-3-0.8-5.4-2-7.2-3.6c-1.8-1.6-2.6-3.7-2.6-6.4c0-2.2,0.6-4.1,1.8-5.7
				s2.8-2.9,4.8-3.8c2-0.9,4.3-1.4,6.8-1.4c2.6,0,4.8,0.4,6.8,1.3c2,0.9,3.5,2.1,4.6,3.7c1.1,1.6,1.7,3.4,1.8,5.4H24.8z"/>
			<path d="M45.5,40.9c-2.8,0-5.2-0.6-7.2-1.8s-3.6-2.9-4.7-5.1c-1.1-2.2-1.6-4.7-1.6-7.7c0-2.9,0.5-5.5,1.6-7.7
				c1.1-2.2,2.6-3.9,4.6-5.2c2-1.2,4.3-1.9,6.9-1.9c1.6,0,3.2,0.3,4.7,0.8s2.8,1.4,4,2.5c1.2,1.1,2.1,2.6,2.8,4.4c0.7,1.8,1,4,1,6.6
				v2H35.1v-4.1h17.1c0-1.5-0.3-2.7-0.9-3.9s-1.4-2-2.5-2.7c-1.1-0.7-2.3-1-3.7-1c-1.6,0-2.9,0.4-4.1,1.1c-1.2,0.8-2,1.7-2.7,3
				c-0.6,1.2-0.9,2.5-0.9,3.9v3.2c0,1.9,0.3,3.5,1,4.8c0.7,1.3,1.6,2.3,2.8,3c1.2,0.7,2.6,1,4.2,1c1,0,2-0.2,2.9-0.5
				c0.9-0.3,1.6-0.8,2.2-1.4c0.6-0.6,1.1-1.3,1.4-2.2l5.2,0.9c-0.4,1.5-1.2,2.9-2.2,4s-2.4,2-4,2.7C49.4,40.6,47.6,40.9,45.5,40.9z"
				/>
			<path d="M65.4,23.5v16.8h-5.5V12h5.3v4.6h0.4c0.7-1.5,1.7-2.7,3.1-3.6c1.4-0.9,3.2-1.4,5.3-1.4c1.9,0,3.6,0.4,5.1,1.2
				c1.5,0.8,2.6,2,3.4,3.6c0.8,1.6,1.2,3.6,1.2,5.9v18h-5.5V22.9c0-2.1-0.5-3.7-1.6-4.8c-1.1-1.2-2.5-1.7-4.4-1.7
				c-1.3,0-2.4,0.3-3.4,0.8c-1,0.6-1.8,1.4-2.3,2.4S65.4,22,65.4,23.5z"/>
			<path d="M100.3,12v4.4H84.8V12H100.3z M89,5.2h5.5V32c0,1.1,0.2,1.9,0.5,2.4s0.7,0.9,1.2,1.1c0.5,0.2,1.1,0.3,1.7,0.3
				c0.4,0,0.8,0,1.2-0.1s0.6-0.1,0.8-0.1l1,4.6c-0.3,0.1-0.8,0.2-1.4,0.4s-1.3,0.2-2.2,0.2c-1.5,0-2.8-0.2-4.1-0.8
				c-1.3-0.5-2.3-1.4-3-2.5S89,34.8,89,33.1V5.2z"/>
			<path d="M105.3,7.6c-1,0-1.8-0.3-2.5-1c-0.7-0.6-1-1.4-1-2.3c0-0.9,0.3-1.7,1-2.3c0.7-0.6,1.5-1,2.5-1c1,0,1.8,0.3,2.5,1
				c0.7,0.6,1,1.4,1,2.3c0,0.9-0.3,1.7-1,2.3S106.3,7.6,105.3,7.6z M102.5,40.3V12h5.5v28.4H102.5z"/>
			<path d="M117.1,23.5v16.8h-5.5V12h5.3v4.6h0.4c0.7-1.5,1.7-2.7,3.1-3.6c1.4-0.9,3.2-1.4,5.3-1.4c1.9,0,3.6,0.4,5.1,1.2
				c1.5,0.8,2.6,2,3.4,3.6c0.8,1.6,1.2,3.6,1.2,5.9v18h-5.5V22.9c0-2.1-0.5-3.7-1.6-4.8c-1.1-1.2-2.5-1.7-4.4-1.7
				c-1.3,0-2.4,0.3-3.4,0.8c-1,0.6-1.8,1.4-2.3,2.4S117.1,22,117.1,23.5z"/>
			<path d="M150.9,40.9c-2.8,0-5.2-0.6-7.2-1.8s-3.6-2.9-4.7-5.1c-1.1-2.2-1.6-4.7-1.6-7.7c0-2.9,0.5-5.5,1.6-7.7
				c1.1-2.2,2.6-3.9,4.6-5.2c2-1.2,4.3-1.9,6.9-1.9c1.6,0,3.2,0.3,4.7,0.8s2.8,1.4,4,2.5c1.2,1.1,2.1,2.6,2.8,4.4c0.7,1.8,1,4,1,6.6
				v2h-22.5v-4.1h17.1c0-1.5-0.3-2.7-0.9-3.9s-1.4-2-2.5-2.7c-1.1-0.7-2.3-1-3.7-1c-1.6,0-2.9,0.4-4.1,1.1c-1.2,0.8-2,1.7-2.7,3
				c-0.6,1.2-0.9,2.5-0.9,3.9v3.2c0,1.9,0.3,3.5,1,4.8c0.7,1.3,1.6,2.3,2.8,3c1.2,0.7,2.6,1,4.2,1c1,0,2-0.2,2.9-0.5
				c0.9-0.3,1.6-0.8,2.2-1.4c0.6-0.6,1.1-1.3,1.4-2.2l5.2,0.9c-0.4,1.5-1.2,2.9-2.2,4s-2.4,2-4,2.7C154.8,40.6,153,40.9,150.9,40.9z
				"/>
			<path d="M170.9,2.5v37.8h-5.5V2.5H170.9z"/>
		</g>
	</g>
</g>
</svg>
